<svg width="92" height="78" viewBox="0 0 92 78" fill="none" xmlns="http://www.w3.org/2000/svg">
<rect width="92" height="78" fill="#06C167"/>
<path d="M29.6562 16.25H32.6562V31.6406C32.6562 33.349 32.276 34.7708 31.5156 35.9062C30.7552 37.0417 29.7448 37.8958 28.4844 38.4688C27.2344 39.0312 25.875 39.3125 24.4062 39.3125C22.8646 39.3125 21.4688 39.0312 20.2188 38.4688C18.9792 37.8958 17.9948 37.0417 17.2656 35.9062C16.5469 34.7708 16.1875 33.349 16.1875 31.6406V16.25H19.1719V31.6406C19.1719 32.8281 19.3906 33.8073 19.8281 34.5781C20.2656 35.349 20.875 35.9219 21.6562 36.2969C22.4479 36.6719 23.3646 36.8594 24.4062 36.8594C25.4583 36.8594 26.375 36.6719 27.1562 36.2969C27.9479 35.9219 28.5625 35.349 29 34.5781C29.4375 33.8073 29.6562 32.8281 29.6562 31.6406V16.25ZM45.8369 34.5156C45.8369 34.099 45.7431 33.7135 45.5556 33.3594C45.3785 32.9948 45.0088 32.6667 44.4463 32.375C43.8942 32.0729 43.0608 31.8125 41.9463 31.5938C41.0088 31.3958 40.1598 31.1615 39.3994 30.8906C38.6494 30.6198 38.0088 30.2917 37.4775 29.9062C36.9567 29.5208 36.5556 29.0677 36.2744 28.5469C35.9931 28.026 35.8525 27.4167 35.8525 26.7188C35.8525 26.0521 35.9983 25.4219 36.29 24.8281C36.5921 24.2344 37.014 23.7083 37.5556 23.25C38.1077 22.7917 38.7692 22.4323 39.54 22.1719C40.3108 21.9115 41.1702 21.7812 42.1181 21.7812C43.4723 21.7812 44.6285 22.0208 45.5869 22.5C46.5452 22.9792 47.2796 23.6198 47.79 24.4219C48.3004 25.2135 48.5556 26.0938 48.5556 27.0625H45.665C45.665 26.5938 45.5244 26.1406 45.2431 25.7031C44.9723 25.2552 44.5713 24.8854 44.04 24.5938C43.5192 24.3021 42.8785 24.1562 42.1181 24.1562C41.316 24.1562 40.665 24.2812 40.165 24.5312C39.6754 24.7708 39.316 25.0781 39.0869 25.4531C38.8681 25.8281 38.7588 26.224 38.7588 26.6406C38.7588 26.9531 38.8108 27.2344 38.915 27.4844C39.0296 27.724 39.2275 27.9479 39.5088 28.1562C39.79 28.3542 40.1858 28.5417 40.6963 28.7188C41.2067 28.8958 41.8577 29.0729 42.6494 29.25C44.0348 29.5625 45.1754 29.9375 46.0713 30.375C46.9671 30.8125 47.6338 31.349 48.0713 31.9844C48.5088 32.6198 48.7275 33.3906 48.7275 34.2969C48.7275 35.0365 48.5713 35.7135 48.2588 36.3281C47.9567 36.9427 47.514 37.474 46.9306 37.9219C46.3577 38.3594 45.6702 38.7031 44.8681 38.9531C44.0765 39.1927 43.1858 39.3125 42.1963 39.3125C40.7067 39.3125 39.4463 39.0469 38.415 38.5156C37.3838 37.9844 36.6025 37.2969 36.0713 36.4531C35.54 35.6094 35.2744 34.7188 35.2744 33.7812H38.1806C38.2223 34.5729 38.4515 35.2031 38.8681 35.6719C39.2848 36.1302 39.7952 36.4583 40.3994 36.6562C41.0035 36.8438 41.6025 36.9375 42.1963 36.9375C42.9879 36.9375 43.6494 36.8333 44.1806 36.625C44.7223 36.4167 45.1338 36.1302 45.415 35.7656C45.6963 35.401 45.8369 34.9844 45.8369 34.5156ZM58.58 39.3125C57.4029 39.3125 56.3352 39.1146 55.3769 38.7188C54.429 38.3125 53.6113 37.7448 52.9238 37.0156C52.2467 36.2865 51.7258 35.4219 51.3613 34.4219C50.9967 33.4219 50.8144 32.3281 50.8144 31.1406V30.4844C50.8144 29.1094 51.0175 27.8854 51.4238 26.8125C51.83 25.7292 52.3821 24.8125 53.08 24.0625C53.7779 23.3125 54.5696 22.7448 55.455 22.3594C56.3404 21.974 57.2571 21.7812 58.205 21.7812C59.4133 21.7812 60.455 21.9896 61.33 22.4062C62.2154 22.8229 62.9394 23.4062 63.5019 24.1562C64.0644 24.8958 64.481 25.7708 64.7519 26.7812C65.0227 27.7812 65.1581 28.875 65.1581 30.0625V31.3594H52.5331V29H62.2675V28.7812C62.2258 28.0312 62.0696 27.3021 61.7988 26.5938C61.5383 25.8854 61.1217 25.3021 60.5488 24.8438C59.9758 24.3854 59.1946 24.1562 58.205 24.1562C57.5488 24.1562 56.9446 24.2969 56.3925 24.5781C55.8404 24.849 55.3665 25.2552 54.9706 25.7969C54.5748 26.3385 54.2675 27 54.0488 27.7812C53.83 28.5625 53.7206 29.4635 53.7206 30.4844V31.1406C53.7206 31.9427 53.83 32.6979 54.0488 33.4062C54.2779 34.1042 54.606 34.7188 55.0331 35.25C55.4706 35.7812 55.9967 36.1979 56.6113 36.5C57.2363 36.8021 57.9446 36.9531 58.7363 36.9531C59.7571 36.9531 60.6217 36.7448 61.33 36.3281C62.0383 35.9115 62.6581 35.3542 63.1894 34.6562L64.9394 36.0469C64.5748 36.599 64.1113 37.125 63.5488 37.625C62.9863 38.125 62.2935 38.5312 61.4706 38.8438C60.6581 39.1562 59.6946 39.3125 58.58 39.3125ZM70.4637 24.75V39H67.5731V22.0938H70.3856L70.4637 24.75ZM75.745 22L75.7294 24.6875C75.4898 24.6354 75.2606 24.6042 75.0419 24.5938C74.8335 24.5729 74.594 24.5625 74.3231 24.5625C73.6565 24.5625 73.0679 24.6667 72.5575 24.875C72.0471 25.0833 71.6148 25.375 71.2606 25.75C70.9065 26.125 70.6252 26.5729 70.4169 27.0938C70.219 27.6042 70.0887 28.1667 70.0262 28.7812L69.2137 29.25C69.2137 28.2292 69.3127 27.2708 69.5106 26.375C69.719 25.4792 70.0367 24.6875 70.4637 24C70.8908 23.3021 71.4325 22.7604 72.0887 22.375C72.7554 21.9792 73.5471 21.7812 74.4637 21.7812C74.6721 21.7812 74.9117 21.8073 75.1825 21.8594C75.4533 21.901 75.6408 21.9479 75.745 22Z" fill="black"/>
<path d="M26.1719 59.5469L31.8438 41.25H36.6094L28.5781 64H25.4062L26.1719 59.5469ZM20.9375 41.25L26.5781 59.5469L27.3906 64H24.1875L16.1875 41.25H20.9375ZM42.0556 47.0938V64H37.915V47.0938H42.0556ZM37.6338 42.6719C37.6338 42.0573 37.8421 41.5469 38.2588 41.1406C38.6858 40.7344 39.2588 40.5312 39.9775 40.5312C40.6963 40.5312 41.264 40.7344 41.6806 41.1406C42.1077 41.5469 42.3213 42.0573 42.3213 42.6719C42.3213 43.276 42.1077 43.7812 41.6806 44.1875C41.264 44.5938 40.6963 44.7969 39.9775 44.7969C39.2588 44.7969 38.6858 44.5938 38.2588 44.1875C37.8421 43.7812 37.6338 43.276 37.6338 42.6719ZM53.0331 47.0938V50.0625H43.3456V47.0938H53.0331ZM45.9394 42.9375H50.08V59.125C50.08 59.625 50.1477 60.0104 50.2831 60.2812C50.4185 60.5521 50.6217 60.7344 50.8925 60.8281C51.1633 60.9219 51.4862 60.9688 51.8612 60.9688C52.1321 60.9688 52.3821 60.9531 52.6112 60.9219C52.8404 60.8906 53.0331 60.8594 53.1894 60.8281L53.205 63.9219C52.8612 64.0365 52.4706 64.1302 52.0331 64.2031C51.606 64.276 51.1217 64.3125 50.58 64.3125C49.6529 64.3125 48.8404 64.1562 48.1425 63.8438C47.4446 63.5208 46.9029 63.0052 46.5175 62.2969C46.1321 61.5781 45.9394 60.6302 45.9394 59.4531V42.9375ZM62.4169 64.3125C61.1356 64.3125 59.9846 64.1042 58.9637 63.6875C57.9429 63.2708 57.0731 62.6927 56.3544 61.9531C55.646 61.2031 55.0992 60.3333 54.7137 59.3438C54.3387 58.3438 54.1512 57.2708 54.1512 56.125V55.5C54.1512 54.1979 54.3387 53.0156 54.7137 51.9531C55.0887 50.8802 55.62 49.9583 56.3075 49.1875C56.995 48.4167 57.8179 47.8229 58.7762 47.4062C59.7346 46.9896 60.7919 46.7812 61.9481 46.7812C63.146 46.7812 64.2033 46.9844 65.12 47.3906C66.0367 47.7865 66.8023 48.349 67.4169 49.0781C68.0315 49.8073 68.495 50.6823 68.8075 51.7031C69.12 52.7135 69.2762 53.8333 69.2762 55.0625V56.7969H56.0262V53.9531H65.2137V53.6406C65.1929 52.9844 65.0679 52.3854 64.8387 51.8438C64.6096 51.2917 64.2554 50.8542 63.7762 50.5312C63.2971 50.1979 62.6773 50.0312 61.9169 50.0312C61.3023 50.0312 60.7658 50.1667 60.3075 50.4375C59.8596 50.6979 59.4846 51.0729 59.1825 51.5625C58.8908 52.0417 58.6721 52.6146 58.5262 53.2812C58.3804 53.9479 58.3075 54.6875 58.3075 55.5V56.125C58.3075 56.8333 58.4012 57.4896 58.5887 58.0938C58.7867 58.6979 59.0731 59.224 59.4481 59.6719C59.8335 60.1094 60.2919 60.4531 60.8231 60.7031C61.3648 60.9427 61.9794 61.0625 62.6669 61.0625C63.5315 61.0625 64.3127 60.8958 65.0106 60.5625C65.719 60.2188 66.3335 59.7135 66.8544 59.0469L68.9325 61.2031C68.5783 61.724 68.0992 62.224 67.495 62.7031C66.9012 63.1823 66.1825 63.5729 65.3387 63.875C64.495 64.1667 63.521 64.3125 62.4169 64.3125Z" fill="black"/>
</svg>
